# xmcd
#
# Track frame offsets:
#	150
#	20366
#	92234
#	116018
#	156306
#	174814
#	197720
#	228684
#	262189
#	293661
#
# Disc length: 4209 seconds
#
# Revision: 1
# Processed by: cddbd v1.5.2PL0 Copyright (c) Steve Scherf et al.
# Submitted via: audiograbber 1.83.01
#
DISCID=88106f0a
DTITLE=Grateful Dead - 72-10-17 Fox Theatre, St Louis MO
DYEAR=1900
DGENRE=
TTITLE0=Promised Land
TTITLE1=Bird Song
TTITLE2=El Paso
TTITLE3=Sugaree
TTITLE4=Me and My Uncle
TTITLE5=Big River
TTITLE6=China Cat Sunflower
TTITLE7=I Know You Rider
TTITLE8=Black Throated Wind
TTITLE9=Deal
EXTD=
EXTT0=
EXTT1=
EXTT2=
EXTT3=
EXTT4=
EXTT5=
EXTT6=
EXTT7=
EXTT8=
EXTT9=
PLAYORDER=
